<?xml version="1.0" encoding="UTF-8" standalone="no"?>
<!-- Created with Inkscape (http://www.inkscape.org/) -->

<svg
   xmlns:dc="http://purl.org/dc/elements/1.1/"
   xmlns:cc="http://creativecommons.org/ns#"
   xmlns:rdf="http://www.w3.org/1999/02/22-rdf-syntax-ns#"
   xmlns:svg="http://www.w3.org/2000/svg"
   xmlns="http://www.w3.org/2000/svg"
   xmlns:sodipodi="http://sodipodi.sourceforge.net/DTD/sodipodi-0.dtd"
   xmlns:inkscape="http://www.inkscape.org/namespaces/inkscape"
   width="210mm"
   height="297mm"
   viewBox="0 0 210 297"
   version="1.1"
   id="svg8"
   inkscape:version="0.92.4 (f8dce91, 2019-08-02)"
   sodipodi:docname="no-merge.svg">
  <defs
     id="defs2" />
  <sodipodi:namedview
     id="base"
     pagecolor="#ffffff"
     bordercolor="#666666"
     borderopacity="1.0"
     inkscape:pageopacity="0.0"
     inkscape:pageshadow="2"
     inkscape:zoom="0.35"
     inkscape:cx="400"
     inkscape:cy="683.61726"
     inkscape:document-units="mm"
     inkscape:current-layer="layer1"
     showgrid="false"
     inkscape:window-width="1853"
     inkscape:window-height="1025"
     inkscape:window-x="67"
     inkscape:window-y="27"
     inkscape:window-maximized="1" />
  <metadata
     id="metadata5">
    <rdf:RDF>
      <cc:Work
         rdf:about="">
        <dc:format>image/svg+xml</dc:format>
        <dc:type
           rdf:resource="http://purl.org/dc/dcmitype/StillImage" />
        <dc:title></dc:title>
      </cc:Work>
    </rdf:RDF>
  </metadata>
  <g
     inkscape:label="Layer 1"
     inkscape:groupmode="layer"
     id="layer1">
    <g
       id="g3824"
       inkscape:transform-center-x="-1429.5446"
       inkscape:transform-center-y="1002.732"
       transform="matrix(9.6482195,0,0,9.825546,-1789.3727,-2026.3024)">
      <path
         style="fill:#fdf6f6;stroke-width:0.08466667"
         d="m 195.78561,224.16248 c 0.36818,-0.37149 0.61116,-0.55034 0.74767,-0.55034 0.13457,0 0.39032,0.18362 0.76444,0.54883 l 0.56222,0.54883 -1.30988,0.001 -1.30989,0.002 z m -3.302,-3.37227 c 0,-1.2202 0.0289,-1.82684 0.0855,-1.79189 0.047,0.0291 0.38992,0.41491 0.762,0.85744 0.48021,0.57114 0.6765,0.871 0.6765,1.03342 0,0.17552 -0.1775,0.40551 -0.762,0.9873 l -0.762,0.75847 z m 7.34483,1.07187 c -0.51736,-0.51211 -0.74083,-0.79394 -0.74083,-0.93431 0,-0.13163 0.19722,-0.41086 0.5715,-0.80915 0.31433,-0.33448 0.65723,-0.70048 0.762,-0.81334 l 0.1905,-0.2052 v 1.74803 c 0,0.96142 -0.01,1.74786 -0.0212,1.74765 -0.0116,-2.1e-4 -0.35454,-0.33037 -0.762,-0.73368 z m -3.8777,-4.19777 c -0.2913,-0.33761 -0.64621,-0.71861 -0.78869,-0.84667 l -0.25904,-0.23283 1.73247,0.001 1.73246,0.001 -0.85477,0.84561 c -0.47013,0.46508 -0.89483,0.8456 -0.94379,0.8456 -0.0489,0 -0.32734,-0.27622 -0.61864,-0.61383 z"
         id="path3840"
         inkscape:connector-curvature="0" />
      <path
         style="fill:#fad0d0;stroke-width:0.08466667"
         d="m 195.58385,224.0342 c 0.91611,-0.9012 0.97423,-0.90116 1.93229,0.001 0.55604,0.52375 0.67808,0.67733 0.53822,0.67733 -0.10769,0 -0.41149,-0.22265 -0.75091,-0.55033 -0.37599,-0.36299 -0.63853,-0.55034 -0.77122,-0.55034 -0.13522,0 -0.38002,0.18044 -0.74662,0.55034 -0.31789,0.32074 -0.61711,0.5498 -0.71722,0.54905 -0.1302,-9.6e-4 -0.005,-0.16492 0.51546,-0.67733 z m -3.10024,-1.28589 c 0,-0.0624 0.3429,-0.45467 0.762,-0.87183 0.5845,-0.58179 0.762,-0.81178 0.762,-0.9873 0,-0.16242 -0.19629,-0.46228 -0.6765,-1.03342 -0.37208,-0.44253 -0.71498,-0.82837 -0.762,-0.85744 -0.047,-0.0291 -0.0855,-0.12904 -0.0855,-0.22217 0,-0.24046 0.069,-0.1786 0.97103,0.87104 1.05628,1.22907 1.05904,1.26945 0.1508,2.20486 -0.75147,0.77397 -1.12183,1.06985 -1.12183,0.89626 z m 7.21322,-0.69905 c -1.16578,-1.11895 -1.16592,-1.10526 0.0238,-2.31721 0.50431,-0.51374 0.88785,-0.84498 0.889,-0.76777 10e-4,0.0747 -0.0837,0.22814 -0.18848,0.341 -0.10477,0.11286 -0.44767,0.47886 -0.762,0.81334 -0.37391,0.39789 -0.5715,0.67757 -0.5715,0.80893 0,0.14073 0.23113,0.42949 0.77286,0.96559 0.42508,0.42065 0.75638,0.81429 0.73623,0.87474 -0.0221,0.0664 -0.37855,-0.21825 -0.89987,-0.71862 z m -4.14972,-4.46962 c -0.46285,-0.52387 -0.82708,-0.96843 -0.80939,-0.9879 0.0895,-0.0985 0.50386,0.25833 1.0847,0.93414 0.3556,0.41375 0.68882,0.75226 0.74048,0.75226 0.0517,0 0.48468,-0.38452 0.96226,-0.85449 0.53984,-0.53122 0.92162,-0.84352 1.00918,-0.8255 0.19939,0.041 -1.72737,1.93399 -1.96854,1.93399 -0.11938,0 -0.45155,-0.31059 -1.01869,-0.9525 z"
         id="path3838"
         inkscape:connector-curvature="0" />
      <path
         style="fill:#f9afaf;stroke-width:0.08466667"
         d="m 195.32193,224.02643 c 0.69518,-0.70654 1.1023,-0.96326 1.36911,-0.86334 0.2403,0.09 1.81551,1.54972 1.67232,1.54972 -0.0705,0 -0.45172,-0.3048 -0.84722,-0.67733 -0.57955,-0.54591 -0.76993,-0.67734 -0.98115,-0.67734 -0.21331,0 -0.39117,0.12601 -0.95601,0.67734 -0.90924,0.88749 -1.13148,0.87967 -0.25705,-0.009 z m -2.83832,-0.99497 c 0,-0.0492 0.40013,-0.48158 0.88919,-0.96087 1.23991,-1.21517 1.25138,-1.1135 -0.32551,-2.88498 -0.32257,-0.36238 -0.56753,-0.67784 -0.54435,-0.70102 0.0232,-0.0232 0.3588,0.29236 0.74583,0.70121 1.40656,1.48582 1.47444,1.73035 0.70962,2.55644 -0.58493,0.63179 -1.47478,1.40968 -1.47478,1.28922 z m 7.12928,-0.83019 c -0.87388,-0.8426 -0.9514,-0.94275 -0.95007,-1.22736 0.002,-0.36587 0.31738,-0.79226 1.30467,-1.76231 0.97633,-0.9593 0.77052,-0.52758 -0.24488,0.51367 -1.19678,1.22725 -1.19685,1.20441 0.007,2.35387 0.49284,0.47054 0.88227,0.89695 0.8654,0.94757 -0.0169,0.0506 -0.45886,-0.32083 -0.9822,-0.82544 z m -3.80065,-4.06828 c -0.27076,-0.31267 -0.69812,-0.78892 -0.94968,-1.05834 -0.29257,-0.31332 -0.40877,-0.48984 -0.32246,-0.48984 0.0742,0 0.52039,0.43815 0.99151,0.97367 0.581,0.66041 0.91375,0.97366 1.03428,0.97366 0.11303,0 0.53641,-0.3543 1.1635,-0.97366 0.5422,-0.53552 1.04559,-0.97367 1.11866,-0.97367 0.0731,0 -0.35254,0.47625 -0.94577,1.05833 -1.34036,1.31516 -1.36943,1.32197 -2.09004,0.48985 z"
         id="path3836"
         inkscape:connector-curvature="0" />
      <path
         style="fill:#f88f8f;stroke-width:0.08466667"
         d="m 195.2447,223.92964 c 0.85716,-0.83272 1.10724,-0.99257 1.45021,-0.927 0.11808,0.0226 0.56186,0.36555 0.98619,0.76218 0.42433,0.39663 0.8273,0.77218 0.89549,0.83457 0.0869,0.0795 0.0927,0.11342 0.0194,0.11342 -0.0575,0 -0.47523,-0.3358 -0.92831,-0.74623 -0.45308,-0.41043 -0.89258,-0.772 -0.97668,-0.80349 -0.26681,-0.0999 -0.67393,0.1568 -1.36911,0.86334 -0.37144,0.37751 -0.72216,0.68638 -0.77937,0.68638 -0.0572,0 0.25875,-0.35242 0.70214,-0.78317 z m 4.45135,-1.41343 c -0.48027,-0.45175 -0.94674,-0.9329 -1.03661,-1.06922 -0.18493,-0.28053 -0.20782,-0.66729 -0.0557,-0.94048 0.18923,-0.33975 1.95728,-2.16834 1.99299,-2.06122 0.0194,0.0581 -0.32534,0.47293 -0.76604,0.92177 -1.03207,1.05114 -1.16608,1.23592 -1.16811,1.61067 -0.002,0.28054 0.0805,0.38512 0.98248,1.25331 0.54127,0.52098 0.97064,0.98308 0.95415,1.02688 -0.0165,0.0438 -0.42292,-0.28996 -0.9032,-0.74171 z m -7.21244,0.72092 c 0,-0.0344 0.43815,-0.48873 0.97367,-1.00955 0.92804,-0.90258 0.97366,-0.96314 0.97366,-1.29249 0,-0.42162 -0.20238,-0.71841 -1.21667,-1.78425 -0.40186,-0.4223 -0.73066,-0.81793 -0.73066,-0.87919 0,-0.0613 0.13698,0.0199 0.3044,0.18038 0.41819,0.40084 1.59534,1.77432 1.71474,2.00071 0.13179,0.2499 0.12276,0.58011 -0.0234,0.85644 -0.17102,0.32333 -1.99573,2.08606 -1.99573,1.92795 z m 3.74893,-4.42158 c -0.0569,-0.023 -0.36055,-0.35341 -0.67484,-0.73415 -0.3143,-0.38074 -0.75949,-0.87323 -0.98932,-1.09442 -0.23809,-0.22915 -0.36309,-0.40217 -0.29054,-0.40217 0.12909,0 0.64097,0.51648 1.5344,1.54818 0.72061,0.83212 0.74968,0.82531 2.09004,-0.48985 0.59323,-0.58208 1.14414,-1.05833 1.22424,-1.05833 0.0921,0 -0.005,0.12012 -0.26414,0.32697 -0.22537,0.17984 -0.76051,0.69419 -1.18919,1.143 -0.6863,0.71853 -0.81275,0.81523 -1.05834,0.80935 -0.1534,-0.004 -0.32544,-0.0255 -0.38231,-0.0486 z"
         id="path3834"
         inkscape:connector-curvature="0" />
      <path
         style="fill:#f76f6f;stroke-width:0.08466667"
         d="m 195.05705,223.87667 c 0.95547,-0.93377 1.09387,-1.02653 1.53175,-1.02653 0.26164,0 0.39518,0.0834 0.91573,0.5722 0.33518,0.31471 0.79991,0.73357 1.03275,0.93079 0.24436,0.20699 0.36655,0.35882 0.28904,0.35913 -0.0739,3.1e-4 -0.53772,-0.37546 -1.03079,-0.83503 -0.49307,-0.45956 -0.98855,-0.85317 -1.10107,-0.87468 -0.34552,-0.0661 -0.57288,0.0786 -1.42902,0.9094 -0.45393,0.44047 -0.87902,0.80086 -0.94464,0.80086 -0.0656,0 0.26569,-0.37626 0.73625,-0.83614 z m 4.48143,-1.32286 c -0.56694,-0.5588 -1.07176,-1.09922 -1.12183,-1.20093 -0.12236,-0.24856 -0.11005,-0.61542 0.0293,-0.8734 0.15382,-0.28477 2.11589,-2.35481 2.15136,-2.26975 0.0154,0.037 -0.4032,0.52626 -0.93025,1.08733 -1.05763,1.12593 -1.16498,1.27733 -1.16855,1.64808 -0.004,0.36385 0.20415,0.63409 1.23026,1.60108 0.50048,0.47165 0.89435,0.89491 0.87525,0.94057 -0.0191,0.0457 -0.49859,-0.37418 -1.06553,-0.93298 z m -7.05487,0.84383 c 0,-0.0281 0.42143,-0.45496 0.93651,-0.94853 1.46739,-1.40611 1.50021,-1.57891 0.51874,-2.73163 -0.25772,-0.30269 -0.69797,-0.78742 -0.97834,-1.07719 -0.28037,-0.28977 -0.48819,-0.54842 -0.46183,-0.57478 0.0667,-0.0667 1.70957,1.68018 2.01809,2.14597 0.26696,0.40303 0.31082,0.69622 0.16275,1.08799 -0.14387,0.38064 -2.19592,2.34136 -2.19592,2.09817 z m 3.21733,-4.96678 c -0.30268,-0.33546 -0.8198,-0.88805 -1.14914,-1.22798 -0.32935,-0.33994 -0.55262,-0.61807 -0.49615,-0.61807 0.14098,0 0.92926,0.78768 1.52009,1.51894 0.54399,0.67329 0.67293,0.76706 1.05471,0.76706 0.22251,0 0.38409,-0.12645 1.04274,-0.81603 0.92339,-0.96675 1.5318,-1.46997 1.77727,-1.46997 0.13152,0 0.0721,0.0673 -0.22627,0.25657 -0.22251,0.14111 -0.83194,0.69356 -1.35429,1.22767 -0.89366,0.91377 -0.96946,0.97111 -1.28417,0.97141 -0.30776,2.9e-4 -0.37838,-0.0484 -0.88479,-0.6096 z"
         id="path3832"
         inkscape:connector-curvature="0" />
      <path
         style="fill:#f64e4e;stroke-width:0.08466667"
         d="m 194.35772,224.337 c 0.24982,-0.20669 0.65295,-0.60271 0.89584,-0.88005 0.52336,-0.59758 1.07593,-0.90357 1.47387,-0.81617 0.16884,0.0371 0.51908,0.29878 0.95367,0.71256 0.37777,0.35967 0.89029,0.81269 1.13895,1.00671 0.27919,0.21785 0.39586,0.35276 0.30505,0.35276 -0.16954,0 -0.64701,-0.37773 -1.57858,-1.24883 -0.5625,-0.52599 -0.69992,-0.61384 -0.96024,-0.61384 -0.43514,0 -0.57475,0.0937 -1.52923,1.02653 -0.47056,0.45988 -0.92261,0.83614 -1.00456,0.83614 -0.0964,0 0.0114,-0.13272 0.30523,-0.37581 z m 6.08697,-0.59336 c -0.0656,-0.12263 -0.52897,-0.60389 -1.02963,-1.06946 -0.50067,-0.46558 -0.99252,-0.97954 -1.09301,-1.14213 -0.20441,-0.33074 -0.23581,-0.76135 -0.0776,-1.06349 0.21484,-0.41018 2.36711,-2.66589 2.36711,-2.48088 0,0.068 -0.43872,0.58033 -0.97493,1.13844 -1.08015,1.12427 -1.31044,1.44392 -1.31044,1.81902 0,0.3855 0.23224,0.69356 1.20424,1.59743 0.88305,0.82116 1.13172,1.12947 1.06717,1.32312 -0.0185,0.0555 -0.0873,5.9e-4 -0.15296,-0.12205 z m -7.96108,-0.14568 c 0,-0.063 0.21188,-0.2837 0.47085,-0.49034 0.62001,-0.49474 1.63193,-1.5646 1.73414,-1.83343 0.22649,-0.59571 0.006,-0.99467 -1.32478,-2.39288 -0.49213,-0.51723 -0.88074,-0.98259 -0.86356,-1.03413 0.0367,-0.10993 1.46762,1.36399 2.0046,2.06476 0.41692,0.54409 0.53772,1.05827 0.33779,1.43777 -0.25749,0.48873 -2.35904,2.49159 -2.35904,2.24825 z m 3.67877,-4.46192 c -0.14203,-0.0866 -0.51189,-0.46159 -0.8219,-0.83328 -0.31002,-0.37169 -0.81433,-0.91028 -1.1207,-1.19688 -0.35478,-0.33187 -0.50434,-0.52107 -0.41191,-0.52107 0.14409,0 0.83749,0.67618 1.89307,1.84605 0.50543,0.56014 0.57748,0.60989 0.88294,0.6096 0.31268,-3e-4 0.39183,-0.0605 1.32192,-1.00597 1.20147,-1.22128 1.58342,-1.46936 2.20649,-1.43314 0.27816,0.0162 0.45771,0.0683 0.48129,0.13985 0.0297,0.09 0.001,0.0945 -0.13594,0.0212 -0.53339,-0.28546 -1.30719,0.16364 -2.49206,1.44635 -1.03081,1.11592 -1.28206,1.24513 -1.8032,0.92733 z"
         id="path3830"
         inkscape:connector-curvature="0" />
      <path
         style="fill:#f62d2d;stroke-width:0.08466667"
         d="m 193.79746,224.49048 c 0.18543,-0.12229 0.71815,-0.59702 1.18382,-1.05496 1.4176,-1.39408 1.65298,-1.39716 3.08852,-0.0405 0.53254,0.50328 1.11595,0.97041 1.37023,1.09712 l 0.44283,0.22067 h -0.30536 c -0.35558,0 -0.81278,-0.32775 -1.8964,-1.35947 -0.43459,-0.41378 -0.78483,-0.67548 -0.95367,-0.71256 -0.39794,-0.0874 -0.95051,0.21859 -1.47387,0.81617 -0.6245,0.71307 -1.30379,1.25586 -1.57166,1.25586 -0.20968,0 -0.20347,-0.012 0.11556,-0.22233 z m 6.51177,0.0893 c 0.0732,-0.0732 0.13305,-0.16965 0.13305,-0.21438 0,-0.28298 -0.36062,-0.7493 -1.2681,-1.63976 -1.12781,-1.10667 -1.2719,-1.31136 -1.2719,-1.80679 0,-0.433 0.21583,-0.74401 1.39191,-2.00569 1.10557,-1.18603 1.23275,-1.35737 1.23275,-1.66078 0,-0.40989 -0.55049,-0.44975 -1.10833,-0.0803 -0.20645,0.13675 -0.81919,0.70588 -1.36165,1.26475 -1.45557,1.4996 -1.64911,1.49334 -2.97242,-0.0962 -0.44158,-0.53043 -1.03977,-1.14249 -1.32929,-1.36013 -0.45226,-0.33996 -0.49638,-0.39571 -0.31319,-0.39571 0.26968,0 0.94389,0.60851 1.8839,1.70032 0.73121,0.84929 1.05753,1.0674 1.45284,0.97104 0.1455,-0.0355 0.5879,-0.42389 1.16581,-1.02356 1.32865,-1.37867 1.9737,-1.75889 2.50323,-1.47549 0.13363,0.0715 0.16377,0.17998 0.16377,0.5894 v 0.50175 l -1.10782,1.16744 c -1.1897,1.25372 -1.36445,1.50205 -1.36445,1.93908 0,0.41924 0.27213,0.78787 1.25325,1.69767 0.48712,0.45172 0.96067,0.94266 1.05235,1.09099 0.26408,0.42729 0.2068,0.96936 -0.10244,0.96936 -0.1512,0 -0.15422,-0.0121 -0.0333,-0.13305 z m -7.82562,-0.74306 c 0,-0.066 0.23813,-0.32476 0.52917,-0.57495 0.80429,-0.69139 1.82655,-1.80422 1.89015,-2.05762 0.15542,-0.61926 -0.16268,-1.14544 -1.59382,-2.63638 -0.48503,-0.50529 -0.8255,-0.93016 -0.8255,-1.03012 0,-0.30357 2.18922,2.08493 2.5385,2.76957 0.3841,0.7529 0.163,1.20258 -1.26107,2.56472 -1.01403,0.96994 -1.27743,1.16887 -1.27743,0.96478 z"
         id="path3828"
         inkscape:connector-curvature="0" />
      <path
         style="fill:#f61212;stroke-width:0.08466667"
         d="m 192.48361,224.34155 c 0,-0.30381 0.0389,-0.39678 0.21431,-0.51168 0.4027,-0.26387 2.01355,-1.86801 2.25452,-2.24514 0.52402,-0.82013 0.20701,-1.43964 -1.80588,-3.52907 -0.63262,-0.65667 -0.66295,-0.70607 -0.66295,-1.0795 v -0.39135 h 0.37261 c 0.52884,0 1.2199,0.54454 2.22832,1.75584 1.32331,1.58955 1.51685,1.59581 2.97242,0.0962 0.54246,-0.55887 1.1552,-1.128 1.36165,-1.26475 0.55784,-0.3695 1.10833,-0.32964 1.10833,0.0803 0,0.30341 -0.12718,0.47475 -1.23275,1.66078 -1.17608,1.26168 -1.39191,1.57269 -1.39191,2.00569 0,0.49543 0.14409,0.70012 1.2719,1.80679 1.02706,1.0078 1.32266,1.42789 1.22385,1.73921 -0.0284,0.0896 -0.14488,0.1863 -0.25875,0.21489 -0.37099,0.0931 -1.07112,-0.34119 -2.06647,-1.28185 -1.43894,-1.35988 -1.67332,-1.35702 -3.09153,0.0376 -1.13303,1.11423 -1.38954,1.27729 -2.00932,1.27729 h -0.48835 z"
         id="path3826"
         inkscape:connector-curvature="0" />
    </g>
  </g>
</svg>
